<svg id="Layer_1" enable-background="new 0 0 511 511" height="512" viewBox="0 0 511 511" width="512" xmlns="http://www.w3.org/2000/svg"><g><path d="m415.5 375.5c-8.837 0-16-7.164-16-16v32c0 8.836-7.163 16-16 16s-16-7.164-16-16v32c0 8.836-7.163 16-16 16s-16-7.164-16-16v-32c0 8.836-7.163 16-16 16s-16-7.164-16-16v-64c0 8.836-7.163 16-16 16s-16-7.164-16-16v-64c0-26.172 12.57-49.406 32-64.001v-39.999h96v39.999c19.43 14.595 32 37.829 32 64.001v96c0 8.836-7.163 16-16 16z" fill="#ffdecf"/><path d="m303.5 159.5h96v24h-96z" fill="#ffcdbe"/><path d="m215.5 327.5 16 176h-144l16-176" fill="#b6e6fa"/><path d="m159.5 391.5c-25.368 0-46.797-16.868-53.681-40h-2.319v8c0 30.928 25.072 56 56 56 30.928 0 56-25.072 56-56v-8h-2.319c-6.884 23.132-28.313 40-53.681 40z" fill="#6e91ef"/><path d="m215.5 327.5v8c0 30.928-25.072 56-56 56-30.928 0-56-25.072-56-56v-8" fill="#efc17a"/><path d="m159.5 351.5c-21.804 0-41.57-8.723-56-22.869v6.869c0 3.409.305 6.748.888 9.989 14.348 13.64 33.752 22.011 55.112 22.011 21.36 0 40.764-8.371 55.112-22.011.584-3.241.888-6.579.888-9.989v-6.869c-14.43 14.146-34.196 22.869-56 22.869z" fill="#ff9d87"/><path d="m79.5 183.949v87.551c0 44.183 35.817 80 80 80 44.183 0 80-35.817 80-80v-119.551c0-8.618-6.626-16.03-15.235-16.431-9.188-.428-16.765 6.888-16.765 15.982v-31.551c0-8.618-6.626-16.03-15.235-16.431-9.188-.428-16.765 6.888-16.765 15.982v-31.551c0-8.618-6.626-16.03-15.235-16.431-9.188-.428-16.765 6.888-16.765 15.982v32c0-9.094-7.577-16.41-16.765-15.982-8.608.401-15.235 7.813-15.235 16.431v63.551c0-9.094-7.577-16.41-16.765-15.982-8.609.4-15.235 7.813-15.235 16.431z" fill="#b6e6fa"/><path d="m159.5 327.5c44.183 0 80-35.817 80-80v24c0 44.183-35.817 80-80 80-44.183 0-80-35.817-80-80v-24c0 44.183 35.817 80 80 80z" fill="#6e91ef"/><path d="m127.5 303.5h64v41.343c-9.799 4.282-20.622 6.657-32 6.657-11.378 0-22.2-2.375-32-6.657z" fill="#93fee6"/><path d="m159.5 327.5c11.378 0 22.201-2.375 32-6.657v24c-9.799 4.282-20.622 6.657-32 6.657-11.378 0-22.2-2.375-32-6.657v-24c9.8 4.282 20.622 6.657 32 6.657z" fill="#7fdcc7"/><g fill="#93fee6"><circle cx="223.5" cy="183.5" r="16"/><circle cx="191.5" cy="167.5" r="16"/><circle cx="159.5" cy="151.5" r="16"/><circle cx="127.5" cy="167.5" r="16"/><circle cx="95.5" cy="215.5" r="16"/><path d="m287.5 7.5h128v152h-128z"/></g><g><g><path d="m327.5 88h14.667v15h-14.667z" fill="#fff"/></g><g><path d="m356.833 88h14.667v15h-14.667z" fill="#fff"/></g></g><path d="m287.5 127.5h128v32h-128z" fill="#fff"/><g><path d="m439 303.5v-40c0-26.506-11.613-50.95-32-67.647v-28.853h16v-167h-143v63.5h15v-48.5h113v105h-113v-40.5h-15v87.5h16v28.853c-20.387 16.698-32 41.141-32 67.647v64c0 12.958 10.542 23.5 23.5 23.5 2.996 0 5.863-.564 8.5-1.591v42.091c0 12.958 10.542 23.5 23.5 23.5 2.996 0 5.863-.564 8.5-1.591v10.091c0 12.958 10.542 23.5 23.5 23.5s23.5-10.542 23.5-23.5v-10.091c2.637 1.027 5.504 1.591 8.5 1.591 12.958 0 23.5-10.542 23.5-23.5v-10.091c2.637 1.027 5.504 1.591 8.5 1.591 12.958 0 23.5-10.542 23.5-23.5v-40h-15v40c0 4.687-3.813 8.5-8.5 8.5s-8.5-3.813-8.5-8.5v-80h-15v112c0 4.687-3.813 8.5-8.5 8.5s-8.5-3.813-8.5-8.5v-112h-15v144c0 4.687-3.813 8.5-8.5 8.5s-8.5-3.813-8.5-8.5v-144h-15v112c0 4.687-3.813 8.5-8.5 8.5s-8.5-3.813-8.5-8.5v-113.214c18.207-3.513 32-19.568 32-38.786h-15c0 13.509-10.991 24.5-24.5 24.5h-7.5v63.5c0 4.687-3.813 8.5-8.5 8.5s-8.5-3.813-8.5-8.5v-64c0-23.016 10.572-44.158 29.004-58.004l2.996-2.25v-36.246h81v36.246l2.996 2.25c18.432 13.846 29.004 34.988 29.004 58.004v40zm-144-168.5h113v17h-113z"/><path d="m183.5 464h16v15h-16z"/><path d="m183.5 432h16v15h-16z"/><path d="m224.626 128.026c-3.344-.159-6.606.377-9.626 1.548v-10.074c0-12.958-10.542-23.5-23.5-23.5-2.996 0-5.863.564-8.5 1.591v-10.091c0-12.958-10.542-23.5-23.5-23.5s-23.5 10.542-23.5 23.5v10.091c-2.637-1.027-5.504-1.591-8.5-1.591-12.958 0-23.5 10.542-23.5 23.5v42.072c-3.017-1.17-6.278-1.705-9.626-1.546-12.546.591-22.374 11.1-22.374 23.926v31.548c0 12.958 10.542 23.5 23.5 23.5 2.996 0 5.863-.564 8.5-1.591v17.591h7.5c13.509 0 24.5 10.991 24.5 24.5h15c0-19.217-13.793-35.273-32-38.786v-3.305c2.637 1.027 5.504 1.591 8.5 1.591 6.175 0 11.802-2.394 16-6.303 4.198 3.909 9.825 6.303 16 6.303s11.802-2.394 16-6.303c4.198 3.909 9.825 6.303 16 6.303s11.802-2.394 16-6.303c4.198 3.909 9.825 6.303 16 6.303 12.958 0 23.5-10.542 23.5-23.5v-63.548c0-12.826-9.828-23.335-22.374-23.926zm-6.992 17.322c1.697-1.619 3.937-2.445 6.286-2.338 4.455.21 8.08 4.221 8.08 8.942v9.639c-2.637-1.027-5.504-1.591-8.5-1.591s-5.863.564-8.5 1.591v-10.091c0-2.346.936-4.531 2.634-6.152zm-58.134 14.652c-4.687 0-8.5-3.813-8.5-8.5s3.813-8.5 8.5-8.5 8.5 3.813 8.5 8.5-3.813 8.5-8.5 8.5zm32-1c4.687 0 8.5 3.813 8.5 8.5s-3.813 8.5-8.5 8.5-8.5-3.813-8.5-8.5 3.813-8.5 8.5-8.5zm32 16c4.687 0 8.5 3.813 8.5 8.5s-3.813 8.5-8.5 8.5-8.5-3.813-8.5-8.5 3.813-8.5 8.5-8.5zm-32-64c4.687 0 8.5 3.813 8.5 8.5v26.091c-2.637-1.027-5.504-1.591-8.5-1.591s-5.863.564-8.5 1.591v-26.091c0-4.687 3.813-8.5 8.5-8.5zm-40.5-23.5c0-4.687 3.813-8.5 8.5-8.5s8.5 3.813 8.5 8.5v42.091c-2.637-1.027-5.504-1.591-8.5-1.591s-5.863.564-8.5 1.591zm-23.5 23.5c4.687 0 8.5 3.813 8.5 8.5v26.091c-2.637-1.027-5.504-1.591-8.5-1.591s-5.863.564-8.5 1.591v-26.091c0-4.687 3.813-8.5 8.5-8.5zm8.5 56.5c0 4.687-3.813 8.5-8.5 8.5s-8.5-3.813-8.5-8.5 3.813-8.5 8.5-8.5 8.5 3.813 8.5 8.5zm-40.921 7.51c2.361-.103 4.59.72 6.287 2.338 1.699 1.621 2.634 3.806 2.634 6.152v10.091c-2.637-1.027-5.504-1.591-8.5-1.591s-5.863.564-8.5 1.591v-9.639c0-4.721 3.625-8.732 8.079-8.942zm.421 48.99c-4.687 0-8.5-3.813-8.5-8.5s3.813-8.5 8.5-8.5 8.5 3.813 8.5 8.5-3.813 8.5-8.5 8.5zm32 0c-4.687 0-8.5-3.813-8.5-8.5v-26.091c2.637 1.027 5.504 1.591 8.5 1.591s5.863-.564 8.5-1.591v26.091c0 4.687-3.813 8.5-8.5 8.5zm32 0c-4.687 0-8.5-3.813-8.5-8.5v-42.091c2.637 1.027 5.504 1.591 8.5 1.591s5.863-.564 8.5-1.591v42.091c0 4.687-3.813 8.5-8.5 8.5zm32 0c-4.687 0-8.5-3.813-8.5-8.5v-26.091c2.637 1.027 5.504 1.591 8.5 1.591s5.863-.564 8.5-1.591v26.091c0 4.687-3.813 8.5-8.5 8.5zm32 0c-4.687 0-8.5-3.813-8.5-8.5v-10.091c2.637 1.027 5.504 1.591 8.5 1.591s5.863-.564 8.5-1.591v10.091c0 4.687-3.813 8.5-8.5 8.5z"/><path d="m232 271.5c0 25.418-13.148 47.822-33 60.77v-36.27h-79v36.27c-19.852-12.948-33-35.352-33-60.77v-24h-15v24c0 23.077 8.98 44.095 23.629 59.745l-16.342 179.755h160.426l-16.341-179.755c14.648-15.65 23.628-36.668 23.628-59.745v-24h-15zm-72.5 112.5c-23.528 0-43.195-16.84-47.585-39.1 13.706 8.916 30.051 14.1 47.585 14.1s33.879-5.184 47.585-14.1c-4.39 22.26-24.057 39.1-47.585 39.1zm-24.5-73h49v28.74c-7.656 2.757-15.906 4.26-24.5 4.26s-16.844-1.503-24.5-4.26zm-27.947 60.263c10.112 14.784 26.306 25.094 44.947 27.297v97.44h-56.287zm59.947 124.737v-97.441c18.641-2.203 34.835-12.513 44.947-27.297l11.34 124.738z"/></g></g></svg>